<svg xmlns="http://www.w3.org/2000/svg" version="1.1" xmlns:xlink="http://www.w3.org/1999/xlink" xmlns:svgjs="http://svgjs.com/svgjs" width="640" height="560" preserveAspectRatio="none" viewBox="0 0 640 560"><g mask="url(&quot;#SvgjsMask1337&quot;)" fill="none"><rect width="640" height="560" x="0" y="0" fill="#0e2a47"></rect><path d="M320 648.12C431.15 658.18 555.28 672.87 638.14 598.14 723.24 521.4 739.15 394.07 728.27 280 718.41 176.4 653.78 93.34 582.79 17.21 508.16-62.79 429.41-157.78 320-157.75 210.62-157.72 137.79-56.77 57.38 17.38-28.6 96.67-153.99 163.04-154.61 280-155.22 397.1-37.88 473.6 54.63 545.37 132.52 605.79 221.81 639.24 320 648.12" fill="rgba(249, 232, 191, 1)"></path><path d="M320 518.19C391.92 524.71 472.24 534.21 525.85 485.85 580.92 436.2 591.22 353.81 584.18 280 577.8 212.97 535.97 159.22 490.04 109.96 441.75 58.2 390.8-3.27 320-3.25 249.23-3.23 202.1 62.09 150.07 110.07 94.43 161.38 13.3 204.32 12.9 280 12.51 355.77 88.43 405.27 148.29 451.71 198.69 490.8 256.46 512.45 320 518.19" fill="rgba(246, 248, 250, 1)"></path><path d="M320 388.27C352.69 391.23 389.2 395.55 413.57 373.57 438.6 351 443.28 313.55 440.08 280 437.18 249.53 418.17 225.1 397.29 202.71 375.34 179.18 352.18 151.24 320 151.25 287.83 151.26 266.41 180.95 242.76 202.76 217.47 226.08 180.59 245.6 180.41 280 180.23 314.44 214.74 336.94 241.95 358.05 264.86 375.82 291.12 385.66 320 388.27" fill="rgba(246, 248, 250, 1)"></path></g><defs><mask id="SvgjsMask1337"><rect width="640" height="560" fill="#ffffff"></rect></mask></defs></svg>